<svg id="Layer_1" enable-background="new 0 0 64 64" height="512" viewBox="0 0 64 64" width="512" xmlns="http://www.w3.org/2000/svg"><path d="m50.3 15.3c-.1 0-.2.1-.3.1v3.8l.4.2c1 .5 1.6 1.5 1.6 2.7v4.2l7.4-3.7c.3-.2.6-.5.6-.9v-11.2z"/><path d="m49.4 13.5 9.3-4.7-9.3-4.7c-.3-.1-.6-.1-.9 0l-9.3 4.7 9.3 4.7c.3.2.7.2.9 0z"/><path d="m48 15.5c-.1 0-.2-.1-.3-.1l-9.7-4.9v2.4l10 5.3z"/><path d="m32.5 12.3c-.3-.2-.6-.2-.9 0l-16.4 8.6 16.4 8.6c.3.2.6.2.9 0l16.4-8.6z"/><path d="m16 15.5v2.7l10-5.3v-2.4l-9.7 4.8c-.1.1-.2.1-.3.2z"/><path d="m15.4 13.5 9.3-4.7-9.3-4.7c-.3-.1-.6-.1-.9 0l-9.3 4.8 9.3 4.7c.3.1.7.1.9-.1z"/><path d="m4.6 22.5 7.4 3.7v-4.2c0-1.1.6-2.1 1.6-2.7l.4-.2v-3.8c-.1 0-.2-.1-.3-.1l-9.7-4.7v11.1c0 .4.2.8.6.9z"/><path d="m19 38v2.9h-2v-3.9l-1.6-.8c-.1-.1-.3-.1-.4-.1-.2 0-.3 0-.4.1l-9.3 4.7 9.8 4.9 9.8-4.9z"/><path d="m4 53.6c0 .4.2.7.6.9l9.4 4.7v-11.7l-10-5z"/><path d="m16 59.3 9.4-4.7c.3-.2.6-.5.6-.9v-11.2l-10 5z"/><path d="m14 22.5v11.8c.8-.3 1.6-.2 2.3.1l.7.3v-.9c0-1.1.6-2.1 1.6-2.7l3.9-2.1.9 1.8-3.9 2.1c-.3.2-.5.5-.5.9v1.9l7.3 3.7c1 .5 1.7 1.5 1.7 2.7v7.5l3 1.6v-19.8c-.1 0-.3-.1-.4-.2z"/><path d="m45 33.8c0-.4-.2-.7-.5-.9l-3.9-2.1.9-1.8 3.9 2.1c1 .5 1.6 1.5 1.6 2.7v.9l.7-.3c.7-.4 1.6-.4 2.3-.1v-11.8l-16.6 8.7c-.1.1-.3.1-.4.2v19.8l3-1.6v-7.5c0-1.1.6-2.2 1.7-2.7l7.3-3.7z"/><path d="m49.4 36.2c-.1-.1-.3-.1-.4-.1-.2 0-.3 0-.4.1l-1.6.8v3.9h-2v-2.9l-5.8 2.9 9.8 4.9 9.8-4.9z"/><path d="m38 53.6c0 .4.2.7.6.9l9.4 4.7v-11.7l-10-5z"/><path d="m50 59.3 9.4-4.7c.3-.2.6-.5.6-.9v-11.2l-10 5z"/></svg>